  0
SECTION
  2
HEADER
  9
$ACADVER
  1
AC1009
  9
$INSBASE
 10
0.0
 20
0.0
 30
0.0
  9
$EXTMIN
 10
0.0
 20
0.0
 30
0.0
  9
$EXTMAX
 10
100.0
 20
100.0
 30
0.0
  9
$UNITMODE
 70
0
  9
$AUNITS
 70
0
  9
$ANGBASE
 50
0.0
  9
$ANGDIR
 70
0
  0
ENDSEC
  0
SECTION
  2
TABLES
  0
TABLE
  2
LTYPE
 70
19
  0
LTYPE
  2
CONTINUOUS
 70
0
  3
Solid
 72
65
 73
0
 40
0.0
  0
LTYPE
  2
CENTER
 70
0
  3
Center ____ _ ____ _ ____ _ ____ _ ____ _ ____
 72
65
 73
4
 40
2.0
 49
1.25
 49
-0.25
 49
0.25
 49
-0.25
  0
LTYPE
  2
CENTERX2
 70
0
  3
Center (2x) ________  __  ________  __  ________
 72
65
 73
4
 40
3.5
 49
2.5
 49
-0.25
 49
0.5
 49
-0.25
  0
LTYPE
  2
CENTER2
 70
0
  3
Center (.5x) ____ _ ____ _ ____ _ ____ _ ____
 72
65
 73
4
 40
1.0
 49
0.625
 49
-0.125
 49
0.125
 49
-0.125
  0
LTYPE
  2
DASHED
 70
0
  3
Dashed __ __ __ __ __ __ __ __ __ __ __ __ __ _
 72
65
 73
2
 40
0.6
 49
0.5
 49
-0.1
  0
LTYPE
  2
DASHEDX2
 70
0
  3
Dashed (2x) ____  ____  ____  ____  ____  ____
 72
65
 73
2
 40
1.2
 49
1.0
 49
-0.2
  0
LTYPE
  2
DASHED2
 70
0
  3
Dashed (.5x) _ _ _ _ _ _ _ _ _ _ _ _ _ _
 72
65
 73
2
 40
0.3
 49
0.25
 49
-0.05
  0
LTYPE
  2
PHANTOM
 70
0
  3
Phantom ______  __  __  ______  __  __  ______
 72
65
 73
6
 40
2.5
 49
1.25
 49
-0.25
 49
0.25
 49
-0.25
 49
0.25
 49
-0.25
  0
LTYPE
  2
PHANTOMX2
 70
0
  3
Phantom (2x)____________    ____    ____    ____________
 72
65
 73
6
 40
4.25
 49
2.5
 49
-0.25
 49
0.5
 49
-0.25
 49
0.5
 49
-0.25
  0
LTYPE
  2
PHANTOM2
 70
0
  3
Phantom (.5x) ___ _ _ ___ _ _ ___ _ _ ___ _ _ ___
 72
65
 73
6
 40
1.25
 49
0.625
 49
-0.125
 49
0.125
 49
-0.125
 49
0.125
 49
-0.125
  0
LTYPE
  2
DASHDOT
 70
0
  3
Dash dot __ . __ . __ . __ . __ . __ . __ . __
 72
65
 73
4
 40
1.4
 49
1.0
 49
-0.2
 49
0.0
 49
-0.2
  0
LTYPE
  2
DASHDOTX2
 70
0
  3
Dash dot (2x) ____  .  ____  .  ____  .  ____
 72
65
 73
4
 40
2.4
 49
2.0
 49
-0.2
 49
0.0
 49
-0.2
  0
LTYPE
  2
DASHDOT2
 70
0
  3
Dash dot (.5x) _ . _ . _ . _ . _ . _ . _ . _
 72
65
 73
4
 40
0.7
 49
0.5
 49
-0.1
 49
0.0
 49
-0.1
  0
LTYPE
  2
DOT
 70
0
  3
Dot .  .  .  .  .  .  .  .  .  .  .  .  .  .  .  .
 72
65
 73
2
 40
0.2
 49
0.0
 49
-0.2
  0
LTYPE
  2
DOTX2
 70
0
  3
Dot (2x) .    .    .    .    .    .    .    . 
 72
65
 73
2
 40
0.4
 49
0.0
 49
-0.4
  0
LTYPE
  2
DOT2
 70
0
  3
Dot (.5) . . . . . . . . . . . . . . . . . . . 
 72
65
 73
2
 40
0.1
 49
0.0
 49
-0.1
  0
LTYPE
  2
DIVIDE
 70
0
  3
Divide __ . . __ . . __ . . __ . . __ . . __
 72
65
 73
6
 40
1.6
 49
1.0
 49
-0.2
 49
0.0
 49
-0.2
 49
0.0
 49
-0.2
  0
LTYPE
  2
DIVIDEX2
 70
0
  3
Divide (2x) ____  . .  ____  . .  ____  . .  ____
 72
65
 73
6
 40
2.6
 49
2.0
 49
-0.2
 49
0.0
 49
-0.2
 49
0.0
 49
-0.2
  0
LTYPE
  2
DIVIDE2
 70
0
  3
Divide(.5x) _ . _ . _ . _ . _ . _ . _ . _
 72
65
 73
6
 40
0.8
 49
0.5
 49
-0.1
 49
0.0
 49
-0.1
 49
0.0
 49
-0.1
  0
ENDTAB
  0
TABLE
  2
LAYER
 70
8
  0
LAYER
  2
DIMENSIONS
 70
0
 62
1
  6
CONTINUOUS
  0
LAYER
  2
TABLEBACKGROUND
 70
0
 62
1
  6
CONTINUOUS
  0
LAYER
  2
TABLECONTENT
 70
0
 62
1
  6
CONTINUOUS
  0
LAYER
  2
TABLEGRID
 70
0
 62
1
  6
CONTINUOUS
  0
LAYER
  2
VIEWPORTS
 70
0
 62
7
  6
CONTINUOUS
  0
LAYER
  2
TEXT_ot
 70
0
 62
1
  6
CONTINUOUS
  0
LAYER
  2
TEXT_nt
 70
0
 62
1
  6
CONTINUOUS
  0
LAYER
  2
TEXT_q
 70
0
 62
1
  6
CONTINUOUS
  0
ENDTAB
  0
TABLE
  2
STYLE
 70
12
  0
STYLE
  2
STANDARD
 70
0
 40
0.0
 41
1.0
 42
1.0
 50
0.0
 71
0
  3
arial.ttf
  4

  0
STYLE
  2
ARIAL
 70
0
 40
0.0
 41
1.0
 42
1.0
 50
0.0
 71
0
  3
arial.ttf
  4

  0
STYLE
  2
ARIAL_BOLD
 70
0
 40
0.0
 41
1.0
 42
1.0
 50
0.0
 71
0
  3
arialbd.ttf
  4

  0
STYLE
  2
ARIAL_ITALIC
 70
0
 40
0.0
 41
1.0
 42
1.0
 50
0.0
 71
0
  3
ariali.ttf
  4

  0
STYLE
  2
ARIAL_BOLD_ITALIC
 70
0
 40
0.0
 41
1.0
 42
1.0
 50
0.0
 71
0
  3
arialbi.ttf
  4

  0
STYLE
  2
ARIAL_BLACK
 70
0
 40
0.0
 41
1.0
 42
1.0
 50
0.0
 71
0
  3
ariblk.ttf
  4

  0
STYLE
  2
ISOCPEUR
 70
0
 40
0.0
 41
1.0
 42
1.0
 50
0.0
 71
0
  3
isocpeur.ttf
  4

  0
STYLE
  2
ISOCPEUR_ITALIC
 70
0
 40
0.0
 41
1.0
 42
1.0
 50
0.0
 71
0
  3
isocpeui.ttf
  4

  0
STYLE
  2
TIMES
 70
0
 40
0.0
 41
1.0
 42
1.0
 50
0.0
 71
0
  3
times.ttf
  4

  0
STYLE
  2
TIMES_BOLD
 70
0
 40
0.0
 41
1.0
 42
1.0
 50
0.0
 71
0
  3
timesbd.ttf
  4

  0
STYLE
  2
TIMES_ITALIC
 70
0
 40
0.0
 41
1.0
 42
1.0
 50
0.0
 71
0
  3
timesi.ttf
  4

  0
STYLE
  2
TIMES_BOLD_ITALIC
 70
0
 40
0.0
 41
1.0
 42
1.0
 50
0.0
 71
0
  3
timesbi.ttf
  4

  0
ENDTAB
  0
TABLE
  2
VIEW
 70
0
  0
ENDTAB
  0
TABLE
  2
APPID
 70
1
  0
APPID
  2
DXFWRITE
 70
0
  0
ENDTAB
  0
TABLE
  2
VPORT
 70
0
  0
ENDTAB
  0
TABLE
  2
UCS
 70
0
  0
ENDTAB
  0
ENDSEC
  0
SECTION
  2
BLOCKS
  0
BLOCK
  8
0
  2
ot-death
  3
ot-death
 70
0
 10
0.0
 20
0.0
 30
0.0
  0
LINE
  6
DASHED2
  8
LINES_ot
 10
0.0
 20
0.0
 30
0.0
 11
0.0
 21
0.0
 31
0.0
  0
TEXT
  8
TEXT_ot
 10
0.0
 20
0.0
 30
0.0
 40
0.11
  1
death
 50
0.0
  0
LINE
  6
DASHED2
  8
LINES_ot
 10
-0.12762274593114853
 20
0.30290309339761734
 30
0.0
 11
0.0
 21
0.0
 31
0.0
  0
TEXT
  8
TEXT_ot
 10
-0.12762274593114853
 20
0.30290309339761734
 30
0.0
 40
0.11
  1
die
 50
0.0
  0
LINE
  6
DASHED2
  8
LINES_ot
 10
1.4276780560612679
 20
1.8506591767072678
 30
0.0
 11
0.0
 21
0.0
 31
0.0
  0
TEXT
  8
TEXT_ot
 10
1.4276780560612679
 20
1.8506591767072678
 30
0.0
 40
0.11
  1
hell
 50
0.0
  0
LINE
  6
DASHED2
  8
LINES_ot
 10
1.1478716507554054
 20
1.4157495647668839
 30
0.0
 11
0.0
 21
0.0
 31
0.0
  0
TEXT
  8
TEXT_ot
 10
1.1478716507554054
 20
1.4157495647668839
 30
0.0
 40
0.11
  1
pit
 50
0.0
  0
LINE
  6
DASHED2
  8
LINES_ot
 10
-0.03156639635562897
 20
1.4744634926319122
 30
0.0
 11
0.0
 21
0.0
 31
0.0
  0
TEXT
  8
TEXT_ot
 10
-0.03156639635562897
 20
1.4744634926319122
 30
0.0
 40
0.11
  1
draweth
 50
0.0
  0
LINE
  6
DASHED2
  8
LINES_ot
 10
-0.386752150952816
 20
0.4832016257569194
 30
0.0
 11
0.0
 21
0.0
 31
0.0
  0
TEXT
  8
TEXT_ot
 10
-0.386752150952816
 20
0.4832016257569194
 30
0.0
 40
0.11
  1
life
 50
0.0
  0
CIRCLE
  8
ORIGIN_ot
 10
0.0
 20
0.0
 30
0.0
 40
0.025
  0
ENDBLK
  0
BLOCK
  8
0
  2
nt-death
  3
nt-death
 70
0
 10
0.0
 20
0.0
 30
0.0
  0
LINE
  6
DASHED2
  8
LINES_nt
 10
0.0
 20
0.0
 30
0.0
 11
0.0
 21
0.0
 31
0.0
  0
TEXT
  8
TEXT_nt
 10
0.0
 20
0.0
 30
0.0
 40
0.11
  1
death
 50
0.0
  0
LINE
  6
DASHED2
  8
LINES_nt
 10
0.47913504764437675
 20
0.627366192638874
 30
0.0
 11
0.0
 21
0.0
 31
0.0
  0
TEXT
  8
TEXT_nt
 10
0.47913504764437675
 20
0.627366192638874
 30
0.0
 40
0.11
  1
taste
 50
0.0
  0
LINE
  6
DASHED2
  8
LINES_nt
 10
0.2753065526485443
 20
-0.9682085737586021
 30
0.0
 11
0.0
 21
0.0
 31
0.0
  0
TEXT
  8
TEXT_nt
 10
0.2753065526485443
 20
-0.9682085737586021
 30
0.0
 40
0.11
  1
point
 50
0.0
  0
LINE
  6
DASHED2
  8
LINES_nt
 10
0.03368012607097626
 20
-1.5915573760867119
 30
0.0
 11
0.0
 21
0.0
 31
0.0
  0
TEXT
  8
TEXT_nt
 10
0.03368012607097626
 20
-1.5915573760867119
 30
0.0
 40
0.11
  1
victory
 50
0.0
  0
LINE
  6
DASHED2
  8
LINES_nt
 10
0.629711365327239
 20
-2.1479515358805656
 30
0.0
 11
0.0
 21
0.0
 31
0.0
  0
TEXT
  8
TEXT_nt
 10
0.629711365327239
 20
-2.1479515358805656
 30
0.0
 40
0.11
  1
swallowed
 50
0.0
  0
LINE
  6
DASHED2
  8
LINES_nt
 10
-1.1972349509596825
 20
-1.1215157434344292
 30
0.0
 11
0.0
 21
0.0
 31
0.0
  0
TEXT
  8
TEXT_nt
 10
-1.1972349509596825
 20
-1.1215157434344292
 30
0.0
 40
0.11
  1
lack
 50
0.0
  0
CIRCLE
  8
ORIGIN_nt
 10
0.0
 20
0.0
 30
0.0
 40
0.025
  0
ENDBLK
  0
BLOCK
  8
0
  2
q-death
  3
q-death
 70
0
 10
0.0
 20
0.0
 30
0.0
  0
LINE
  6
DASHED2
  8
LINES_q
 10
0.0
 20
0.0
 30
0.0
 11
0.0
 21
0.0
 31
0.0
  0
TEXT
  8
TEXT_q
 10
0.0
 20
0.0
 30
0.0
 40
0.11
  1
death
 50
0.0
  0
LINE
  6
DASHED2
  8
LINES_q
 10
-0.18751170486211777
 20
0.6886259280145168
 30
0.0
 11
0.0
 21
0.0
 31
0.0
  0
TEXT
  8
TEXT_q
 10
-0.18751170486211777
 20
0.6886259280145168
 30
0.0
 40
0.11
  1
present
 50
0.0
  0
LINE
  6
DASHED2
  8
LINES_q
 10
0.848417840898037
 20
1.3928892277181149
 30
0.0
 11
0.0
 21
0.0
 31
0.0
  0
TEXT
  8
TEXT_q
 10
0.848417840898037
 20
1.3928892277181149
 30
0.0
 40
0.11
  1
world
 50
0.0
  0
LINE
  6
DASHED2
  8
LINES_q
 10
0.5219776555895805
 20
-1.3205604441463947
 30
0.0
 11
0.0
 21
0.0
 31
0.0
  0
TEXT
  8
TEXT_q
 10
0.5219776555895805
 20
-1.3205604441463947
 30
0.0
 40
0.11
  1
deceiver
 50
0.0
  0
LINE
  6
DASHED2
  8
LINES_q
 10
-1.6321179643273354
 20
-0.1524932449683547
 30
0.0
 11
0.0
 21
0.0
 31
0.0
  0
TEXT
  8
TEXT_q
 10
-1.6321179643273354
 20
-0.1524932449683547
 30
0.0
 40
0.11
  1
dead
 50
0.0
  0
LINE
  6
DASHED2
  8
LINES_q
 10
-1.3082058355212212
 20
-0.5614565126597881
 30
0.0
 11
0.0
 21
0.0
 31
0.0
  0
TEXT
  8
TEXT_q
 10
-1.3082058355212212
 20
-0.5614565126597881
 30
0.0
 40
0.11
  1
smite
 50
0.0
  0
CIRCLE
  8
ORIGIN_q
 10
0.0
 20
0.0
 30
0.0
 40
0.025
  0
ENDBLK
  0
ENDSEC
  0
SECTION
  2
ENTITIES
  0
VIEWPORT
  8
VIEWPORTS
 67
1
 10
0.0
 20
0.0
 30
0.0
 40
1.0
 41
1.0
 68
1
 69
1
1001
ACAD
1000
MVIEW
1002
{
1070
16
1010
0.0
1020
0.0
1030
0.0
1010
0.0
1020
0.0
1030
0.0
1040
0.0
1040
1.0
1040
0.0
1040
0.0
1040
50.0
1040
0.0
1040
0.0
1070
0
1070
100
1070
1
1070
3
1070
0
1070
0
1070
0
1070
0
1040
0.0
1040
0.0
1040
0.0
1040
0.1
1040
0.1
1040
0.1
1040
0.1
1070
0
1002
{
1002
}
1002
}
  0
POLYLINE
  6
CONTINUOUS
  8
OUTLINE_ot
 66
1
 10
0.0
 20
0.0
 30
0.0
 70
9
  0
VERTEX
  8
OUTLINE_ot
 10
0.0
 20
0.0
 30
0.0
  0
VERTEX
  8
OUTLINE_ot
 10
-0.386752150952816
 20
0.4832016257569194
 30
0.0
  0
VERTEX
  8
OUTLINE_ot
 10
-0.03156639635562897
 20
1.4744634926319122
 30
0.0
  0
VERTEX
  8
OUTLINE_ot
 10
1.4276780560612679
 20
1.8506591767072678
 30
0.0
  0
VERTEX
  8
OUTLINE_ot
 10
1.1478716507554054
 20
1.4157495647668839
 30
0.0
  0
VERTEX
  8
OUTLINE_ot
 10
0.0
 20
0.0
 30
0.0
  0
SEQEND
  0
INSERT
  8
0
  2
ot-death
 10
0.0
 20
0.0
 30
0.0
  0
POLYLINE
  6
CONTINUOUS
  8
OUTLINE_nt
 66
1
 10
0.0
 20
0.0
 30
0.0
 70
9
  0
VERTEX
  8
OUTLINE_nt
 10
0.629711365327239
 20
-2.1479515358805656
 30
0.0
  0
VERTEX
  8
OUTLINE_nt
 10
-1.1972349509596825
 20
-1.1215157434344292
 30
0.0
  0
VERTEX
  8
OUTLINE_nt
 10
0.47913504764437675
 20
0.627366192638874
 30
0.0
  0
VERTEX
  8
OUTLINE_nt
 10
0.629711365327239
 20
-2.1479515358805656
 30
0.0
  0
SEQEND
  0
INSERT
  8
0
  2
nt-death
 10
0.0
 20
0.0
 30
0.0
  0
POLYLINE
  6
CONTINUOUS
  8
OUTLINE_q
 66
1
 10
0.0
 20
0.0
 30
0.0
 70
9
  0
VERTEX
  8
OUTLINE_q
 10
0.5219776555895805
 20
-1.3205604441463947
 30
0.0
  0
VERTEX
  8
OUTLINE_q
 10
-1.3082058355212212
 20
-0.5614565126597881
 30
0.0
  0
VERTEX
  8
OUTLINE_q
 10
-1.6321179643273354
 20
-0.1524932449683547
 30
0.0
  0
VERTEX
  8
OUTLINE_q
 10
0.848417840898037
 20
1.3928892277181149
 30
0.0
  0
VERTEX
  8
OUTLINE_q
 10
0.5219776555895805
 20
-1.3205604441463947
 30
0.0
  0
SEQEND
  0
INSERT
  8
0
  2
q-death
 10
0.0
 20
0.0
 30
0.0
  0
ENDSEC
  0
EOF
