  0
SECTION
  2
HEADER
  9
$ACADVER
  1
AC1009
  9
$INSBASE
 10
0.0
 20
0.0
 30
0.0
  9
$EXTMIN
 10
0.0
 20
0.0
 30
0.0
  9
$EXTMAX
 10
100.0
 20
100.0
 30
0.0
  9
$UNITMODE
 70
0
  9
$AUNITS
 70
0
  9
$ANGBASE
 50
0.0
  9
$ANGDIR
 70
0
  0
ENDSEC
  0
SECTION
  2
TABLES
  0
TABLE
  2
LTYPE
 70
19
  0
LTYPE
  2
CONTINUOUS
 70
0
  3
Solid
 72
65
 73
0
 40
0.0
  0
LTYPE
  2
CENTER
 70
0
  3
Center ____ _ ____ _ ____ _ ____ _ ____ _ ____
 72
65
 73
4
 40
2.0
 49
1.25
 49
-0.25
 49
0.25
 49
-0.25
  0
LTYPE
  2
CENTERX2
 70
0
  3
Center (2x) ________  __  ________  __  ________
 72
65
 73
4
 40
3.5
 49
2.5
 49
-0.25
 49
0.5
 49
-0.25
  0
LTYPE
  2
CENTER2
 70
0
  3
Center (.5x) ____ _ ____ _ ____ _ ____ _ ____
 72
65
 73
4
 40
1.0
 49
0.625
 49
-0.125
 49
0.125
 49
-0.125
  0
LTYPE
  2
DASHED
 70
0
  3
Dashed __ __ __ __ __ __ __ __ __ __ __ __ __ _
 72
65
 73
2
 40
0.6
 49
0.5
 49
-0.1
  0
LTYPE
  2
DASHEDX2
 70
0
  3
Dashed (2x) ____  ____  ____  ____  ____  ____
 72
65
 73
2
 40
1.2
 49
1.0
 49
-0.2
  0
LTYPE
  2
DASHED2
 70
0
  3
Dashed (.5x) _ _ _ _ _ _ _ _ _ _ _ _ _ _
 72
65
 73
2
 40
0.3
 49
0.25
 49
-0.05
  0
LTYPE
  2
PHANTOM
 70
0
  3
Phantom ______  __  __  ______  __  __  ______
 72
65
 73
6
 40
2.5
 49
1.25
 49
-0.25
 49
0.25
 49
-0.25
 49
0.25
 49
-0.25
  0
LTYPE
  2
PHANTOMX2
 70
0
  3
Phantom (2x)____________    ____    ____    ____________
 72
65
 73
6
 40
4.25
 49
2.5
 49
-0.25
 49
0.5
 49
-0.25
 49
0.5
 49
-0.25
  0
LTYPE
  2
PHANTOM2
 70
0
  3
Phantom (.5x) ___ _ _ ___ _ _ ___ _ _ ___ _ _ ___
 72
65
 73
6
 40
1.25
 49
0.625
 49
-0.125
 49
0.125
 49
-0.125
 49
0.125
 49
-0.125
  0
LTYPE
  2
DASHDOT
 70
0
  3
Dash dot __ . __ . __ . __ . __ . __ . __ . __
 72
65
 73
4
 40
1.4
 49
1.0
 49
-0.2
 49
0.0
 49
-0.2
  0
LTYPE
  2
DASHDOTX2
 70
0
  3
Dash dot (2x) ____  .  ____  .  ____  .  ____
 72
65
 73
4
 40
2.4
 49
2.0
 49
-0.2
 49
0.0
 49
-0.2
  0
LTYPE
  2
DASHDOT2
 70
0
  3
Dash dot (.5x) _ . _ . _ . _ . _ . _ . _ . _
 72
65
 73
4
 40
0.7
 49
0.5
 49
-0.1
 49
0.0
 49
-0.1
  0
LTYPE
  2
DOT
 70
0
  3
Dot .  .  .  .  .  .  .  .  .  .  .  .  .  .  .  .
 72
65
 73
2
 40
0.2
 49
0.0
 49
-0.2
  0
LTYPE
  2
DOTX2
 70
0
  3
Dot (2x) .    .    .    .    .    .    .    . 
 72
65
 73
2
 40
0.4
 49
0.0
 49
-0.4
  0
LTYPE
  2
DOT2
 70
0
  3
Dot (.5) . . . . . . . . . . . . . . . . . . . 
 72
65
 73
2
 40
0.1
 49
0.0
 49
-0.1
  0
LTYPE
  2
DIVIDE
 70
0
  3
Divide __ . . __ . . __ . . __ . . __ . . __
 72
65
 73
6
 40
1.6
 49
1.0
 49
-0.2
 49
0.0
 49
-0.2
 49
0.0
 49
-0.2
  0
LTYPE
  2
DIVIDEX2
 70
0
  3
Divide (2x) ____  . .  ____  . .  ____  . .  ____
 72
65
 73
6
 40
2.6
 49
2.0
 49
-0.2
 49
0.0
 49
-0.2
 49
0.0
 49
-0.2
  0
LTYPE
  2
DIVIDE2
 70
0
  3
Divide(.5x) _ . _ . _ . _ . _ . _ . _ . _
 72
65
 73
6
 40
0.8
 49
0.5
 49
-0.1
 49
0.0
 49
-0.1
 49
0.0
 49
-0.1
  0
ENDTAB
  0
TABLE
  2
LAYER
 70
8
  0
LAYER
  2
DIMENSIONS
 70
0
 62
1
  6
CONTINUOUS
  0
LAYER
  2
TABLEBACKGROUND
 70
0
 62
1
  6
CONTINUOUS
  0
LAYER
  2
TABLECONTENT
 70
0
 62
1
  6
CONTINUOUS
  0
LAYER
  2
TABLEGRID
 70
0
 62
1
  6
CONTINUOUS
  0
LAYER
  2
VIEWPORTS
 70
0
 62
7
  6
CONTINUOUS
  0
LAYER
  2
TEXT_ot
 70
0
 62
1
  6
CONTINUOUS
  0
LAYER
  2
TEXT_nt
 70
0
 62
1
  6
CONTINUOUS
  0
LAYER
  2
TEXT_q
 70
0
 62
1
  6
CONTINUOUS
  0
ENDTAB
  0
TABLE
  2
STYLE
 70
12
  0
STYLE
  2
STANDARD
 70
0
 40
0.0
 41
1.0
 42
1.0
 50
0.0
 71
0
  3
arial.ttf
  4

  0
STYLE
  2
ARIAL
 70
0
 40
0.0
 41
1.0
 42
1.0
 50
0.0
 71
0
  3
arial.ttf
  4

  0
STYLE
  2
ARIAL_BOLD
 70
0
 40
0.0
 41
1.0
 42
1.0
 50
0.0
 71
0
  3
arialbd.ttf
  4

  0
STYLE
  2
ARIAL_ITALIC
 70
0
 40
0.0
 41
1.0
 42
1.0
 50
0.0
 71
0
  3
ariali.ttf
  4

  0
STYLE
  2
ARIAL_BOLD_ITALIC
 70
0
 40
0.0
 41
1.0
 42
1.0
 50
0.0
 71
0
  3
arialbi.ttf
  4

  0
STYLE
  2
ARIAL_BLACK
 70
0
 40
0.0
 41
1.0
 42
1.0
 50
0.0
 71
0
  3
ariblk.ttf
  4

  0
STYLE
  2
ISOCPEUR
 70
0
 40
0.0
 41
1.0
 42
1.0
 50
0.0
 71
0
  3
isocpeur.ttf
  4

  0
STYLE
  2
ISOCPEUR_ITALIC
 70
0
 40
0.0
 41
1.0
 42
1.0
 50
0.0
 71
0
  3
isocpeui.ttf
  4

  0
STYLE
  2
TIMES
 70
0
 40
0.0
 41
1.0
 42
1.0
 50
0.0
 71
0
  3
times.ttf
  4

  0
STYLE
  2
TIMES_BOLD
 70
0
 40
0.0
 41
1.0
 42
1.0
 50
0.0
 71
0
  3
timesbd.ttf
  4

  0
STYLE
  2
TIMES_ITALIC
 70
0
 40
0.0
 41
1.0
 42
1.0
 50
0.0
 71
0
  3
timesi.ttf
  4

  0
STYLE
  2
TIMES_BOLD_ITALIC
 70
0
 40
0.0
 41
1.0
 42
1.0
 50
0.0
 71
0
  3
timesbi.ttf
  4

  0
ENDTAB
  0
TABLE
  2
VIEW
 70
0
  0
ENDTAB
  0
TABLE
  2
APPID
 70
1
  0
APPID
  2
DXFWRITE
 70
0
  0
ENDTAB
  0
TABLE
  2
VPORT
 70
0
  0
ENDTAB
  0
TABLE
  2
UCS
 70
0
  0
ENDTAB
  0
ENDSEC
  0
SECTION
  2
BLOCKS
  0
BLOCK
  8
0
  2
ot
  3
ot
 70
0
 10
0.0
 20
0.0
 30
0.0
  0
LINE
  6
DASHED2
  8
LINES_ot
 10
0.0
 20
0.0
 30
0.0
 11
0.0
 21
0.0
 31
0.0
  0
TEXT
  8
TEXT_ot
 10
0.0
 20
0.0
 30
0.0
 40
0.11
  1
trust
 50
0.0
  0
LINE
  6
DASHED2
  8
LINES_ot
 10
-1.3419034332036972
 20
-0.2023724460741505
 30
0.0
 11
0.0
 21
0.0
 31
0.0
  0
TEXT
  8
TEXT_ot
 10
-1.3419034332036972
 20
-0.2023724460741505
 30
0.0
 40
0.11
  1
wait
 50
0.0
  0
LINE
  6
DASHED2
  8
LINES_ot
 10
0.26562124490737915
 20
0.15314072370529175
 30
0.0
 11
0.0
 21
0.0
 31
0.0
  0
TEXT
  8
TEXT_ot
 10
0.26562124490737915
 20
0.15314072370529175
 30
0.0
 40
0.11
  1
merciful
 50
0.0
  0
LINE
  6
DASHED2
  8
LINES_ot
 10
0.07376812398433685
 20
0.5519860610365868
 30
0.0
 11
0.0
 21
0.0
 31
0.0
  0
TEXT
  8
TEXT_ot
 10
0.07376812398433685
 20
0.5519860610365868
 30
0.0
 40
0.11
  1
hope
 50
0.0
  0
LINE
  6
DASHED2
  8
LINES_ot
 10
0.8434921503067017
 20
0.41811902076005936
 30
0.0
 11
0.0
 21
0.0
 31
0.0
  0
TEXT
  8
TEXT_ot
 10
0.8434921503067017
 20
0.41811902076005936
 30
0.0
 40
0.11
  1
steal
 50
0.0
  0
LINE
  6
DASHED2
  8
LINES_ot
 10
-0.3112172335386276
 20
0.8805679902434349
 30
0.0
 11
0.0
 21
0.0
 31
0.0
  0
TEXT
  8
TEXT_ot
 10
-0.3112172335386276
 20
0.8805679902434349
 30
0.0
 40
0.11
  1
confidence
 50
0.0
  0
CIRCLE
  8
ORIGIN_ot
 10
0.0
 20
0.0
 30
0.0
 40
0.025
  0
ENDBLK
  0
BLOCK
  8
0
  2
nt
  3
nt
 70
0
 10
0.0
 20
0.0
 30
0.0
  0
LINE
  6
DASHED2
  8
LINES_nt
 10
0.0
 20
0.0
 30
0.0
 11
0.0
 21
0.0
 31
0.0
  0
TEXT
  8
TEXT_nt
 10
0.0
 20
0.0
 30
0.0
 40
0.11
  1
trust
 50
0.0
  0
LINE
  6
DASHED2
  8
LINES_nt
 10
-0.19671082496643066
 20
0.31373736448585987
 30
0.0
 11
0.0
 21
0.0
 31
0.0
  0
TEXT
  8
TEXT_nt
 10
-0.19671082496643066
 20
0.31373736448585987
 30
0.0
 40
0.11
  1
behalf
 50
0.0
  0
LINE
  6
DASHED2
  8
LINES_nt
 10
0.5340975522994995
 20
-0.06762385368347168
 30
0.0
 11
0.0
 21
0.0
 31
0.0
  0
TEXT
  8
TEXT_nt
 10
0.5340975522994995
 20
-0.06762385368347168
 30
0.0
 40
0.11
  1
account
 50
0.0
  0
LINE
  6
DASHED2
  8
LINES_nt
 10
0.050561726093292236
 20
1.0432180017232895
 30
0.0
 11
0.0
 21
0.0
 31
0.0
  0
TEXT
  8
TEXT_nt
 10
0.050561726093292236
 20
1.0432180017232895
 30
0.0
 40
0.11
  1
unrighteous
 50
0.0
  0
LINE
  6
DASHED2
  8
LINES_nt
 10
0.5936461687088013
 20
0.385571476072073
 30
0.0
 11
0.0
 21
0.0
 31
0.0
  0
TEXT
  8
TEXT_nt
 10
0.5936461687088013
 20
0.385571476072073
 30
0.0
 40
0.11
  1
settle
 50
0.0
  0
LINE
  6
DASHED2
  8
LINES_nt
 10
0.7165530323982239
 20
1.7743125930428505
 30
0.0
 11
0.0
 21
0.0
 31
0.0
  0
TEXT
  8
TEXT_nt
 10
0.7165530323982239
 20
1.7743125930428505
 30
0.0
 40
0.11
  1
stronger
 50
0.0
  0
CIRCLE
  8
ORIGIN_nt
 10
0.0
 20
0.0
 30
0.0
 40
0.025
  0
ENDBLK
  0
BLOCK
  8
0
  2
q
  3
q
 70
0
 10
0.0
 20
0.0
 30
0.0
  0
LINE
  6
DASHED2
  8
LINES_q
 10
0.0
 20
0.0
 30
0.0
 11
0.0
 21
0.0
 31
0.0
  0
TEXT
  8
TEXT_q
 10
0.0
 20
0.0
 30
0.0
 40
0.11
  1
trust
 50
0.0
  0
LINE
  6
DASHED2
  8
LINES_q
 10
0.1658126711845398
 20
-0.4985776892863214
 30
0.0
 11
0.0
 21
0.0
 31
0.0
  0
TEXT
  8
TEXT_q
 10
0.1658126711845398
 20
-0.4985776892863214
 30
0.0
 40
0.11
  1
purpose
 50
0.0
  0
LINE
  6
DASHED2
  8
LINES_q
 10
0.7345850765705109
 20
-1.2197833508253098
 30
0.0
 11
0.0
 21
0.0
 31
0.0
  0
TEXT
  8
TEXT_q
 10
0.7345850765705109
 20
-1.2197833508253098
 30
0.0
 40
0.11
  1
trusted
 50
0.0
  0
LINE
  6
DASHED2
  8
LINES_q
 10
1.047055423259735
 20
-1.2310908734798431
 30
0.0
 11
0.0
 21
0.0
 31
0.0
  0
TEXT
  8
TEXT_q
 10
1.047055423259735
 20
-1.2310908734798431
 30
0.0
 40
0.11
  1
affair
 50
0.0
  0
LINE
  6
DASHED2
  8
LINES_q
 10
2.919134870171547
 20
0.6600876152515411
 30
0.0
 11
0.0
 21
0.0
 31
0.0
  0
TEXT
  8
TEXT_q
 10
2.919134870171547
 20
0.6600876152515411
 30
0.0
 40
0.11
  1
creator
 50
0.0
  0
LINE
  6
DASHED2
  8
LINES_q
 10
1.185886412858963
 20
0.5958160012960434
 30
0.0
 11
0.0
 21
0.0
 31
0.0
  0
TEXT
  8
TEXT_q
 10
1.185886412858963
 20
0.5958160012960434
 30
0.0
 40
0.11
  1
sufficient
 50
0.0
  0
CIRCLE
  8
ORIGIN_q
 10
0.0
 20
0.0
 30
0.0
 40
0.025
  0
ENDBLK
  0
ENDSEC
  0
SECTION
  2
ENTITIES
  0
VIEWPORT
  8
VIEWPORTS
 67
1
 10
0.0
 20
0.0
 30
0.0
 40
1.0
 41
1.0
 68
1
 69
1
1001
ACAD
1000
MVIEW
1002
{
1070
16
1010
0.0
1020
0.0
1030
0.0
1010
0.0
1020
0.0
1030
0.0
1040
0.0
1040
1.0
1040
0.0
1040
0.0
1040
50.0
1040
0.0
1040
0.0
1070
0
1070
100
1070
1
1070
3
1070
0
1070
0
1070
0
1070
0
1040
0.0
1040
0.0
1040
0.0
1040
0.1
1040
0.1
1040
0.1
1040
0.1
1070
0
1002
{
1002
}
1002
}
  0
POLYLINE
  6
CONTINUOUS
  8
OUTLINE_ot
 66
1
 10
0.0
 20
0.0
 30
0.0
 70
9
  0
VERTEX
  8
OUTLINE_ot
 10
-1.3419034332036972
 20
-0.2023724460741505
 30
0.0
  0
VERTEX
  8
OUTLINE_ot
 10
-0.3112172335386276
 20
0.8805679902434349
 30
0.0
  0
VERTEX
  8
OUTLINE_ot
 10
0.8434921503067017
 20
0.41811902076005936
 30
0.0
  0
VERTEX
  8
OUTLINE_ot
 10
0.0
 20
0.0
 30
0.0
  0
VERTEX
  8
OUTLINE_ot
 10
-1.3419034332036972
 20
-0.2023724460741505
 30
0.0
  0
SEQEND
  0
INSERT
  8
0
  2
ot
 10
0.0
 20
0.0
 30
0.0
  0
POLYLINE
  6
CONTINUOUS
  8
OUTLINE_nt
 66
1
 10
0.0
 20
0.0
 30
0.0
 70
9
  0
VERTEX
  8
OUTLINE_nt
 10
0.5340975522994995
 20
-0.06762385368347168
 30
0.0
  0
VERTEX
  8
OUTLINE_nt
 10
0.0
 20
0.0
 30
0.0
  0
VERTEX
  8
OUTLINE_nt
 10
-0.19671082496643066
 20
0.31373736448585987
 30
0.0
  0
VERTEX
  8
OUTLINE_nt
 10
0.050561726093292236
 20
1.0432180017232895
 30
0.0
  0
VERTEX
  8
OUTLINE_nt
 10
0.7165530323982239
 20
1.7743125930428505
 30
0.0
  0
VERTEX
  8
OUTLINE_nt
 10
0.5936461687088013
 20
0.385571476072073
 30
0.0
  0
VERTEX
  8
OUTLINE_nt
 10
0.5340975522994995
 20
-0.06762385368347168
 30
0.0
  0
SEQEND
  0
INSERT
  8
0
  2
nt
 10
0.0
 20
0.0
 30
0.0
  0
POLYLINE
  6
CONTINUOUS
  8
OUTLINE_q
 66
1
 10
0.0
 20
0.0
 30
0.0
 70
9
  0
VERTEX
  8
OUTLINE_q
 10
1.047055423259735
 20
-1.2310908734798431
 30
0.0
  0
VERTEX
  8
OUTLINE_q
 10
0.7345850765705109
 20
-1.2197833508253098
 30
0.0
  0
VERTEX
  8
OUTLINE_q
 10
0.1658126711845398
 20
-0.4985776892863214
 30
0.0
  0
VERTEX
  8
OUTLINE_q
 10
0.0
 20
0.0
 30
0.0
  0
VERTEX
  8
OUTLINE_q
 10
1.185886412858963
 20
0.5958160012960434
 30
0.0
  0
VERTEX
  8
OUTLINE_q
 10
2.919134870171547
 20
0.6600876152515411
 30
0.0
  0
VERTEX
  8
OUTLINE_q
 10
1.047055423259735
 20
-1.2310908734798431
 30
0.0
  0
SEQEND
  0
INSERT
  8
0
  2
q
 10
0.0
 20
0.0
 30
0.0
  0
ENDSEC
  0
EOF
